<svg width="12" height="11" viewBox="0 0 12 11" fill="none" xmlns="http://www.w3.org/2000/svg">
<g clip-path="url(#clip0_121_55912)">
<path fill-rule="evenodd" clip-rule="evenodd" d="M8.06481 9.34998L11.6439 5.77057C11.8635 5.55092 11.8635 5.19479 11.6439 4.97514L8.06481 1.3957C7.84519 1.17604 7.48909 1.17604 7.26946 1.3957C7.04983 1.61535 7.04983 1.97148 7.26946 2.19113L9.88845 4.8104H1.49795C1.18734 4.8104 0.935547 5.06222 0.935547 5.37285C0.935547 5.68349 1.18734 5.93531 1.49795 5.93531H9.88845L7.26946 8.55459C7.04983 8.77425 7.04983 9.13032 7.26946 9.34998C7.48909 9.56964 7.84519 9.56964 8.06481 9.34998Z" fill="white"/>
</g>
<defs>
<clipPath id="clip0_121_55912">
<rect width="11.248" height="9.74922" fill="white" transform="translate(0.748047 0.498047)"/>
</clipPath>
</defs>
</svg>
